<svg width="487" height="349" viewBox="0 0 487 349" fill="none" xmlns="http://www.w3.org/2000/svg">
<path d="M21.888 343.096C19.072 343.096 16.4693 342.413 14.08 341.048C11.776 339.682 9.94133 337.848 8.576 335.544C7.21067 333.154 6.528 330.552 6.528 327.736V324.152H16.896V327.736C16.896 329.101 17.3653 330.296 18.304 331.32C19.328 332.258 20.5227 332.728 21.888 332.728H83.328C84.6933 332.728 85.8453 332.258 86.784 331.32C87.808 330.296 88.32 329.101 88.32 327.736V307.128C88.32 305.762 87.808 304.61 86.784 303.672C85.8453 302.733 84.6933 302.264 83.328 302.264H21.888C19.072 302.264 16.4693 301.581 14.08 300.216C11.776 298.765 9.94133 296.888 8.576 294.584C7.21067 292.28 6.528 289.72 6.528 286.904V266.296C6.528 263.48 7.21067 260.92 8.576 258.616C9.94133 256.226 11.776 254.349 14.08 252.984C16.4693 251.618 19.072 250.936 21.888 250.936H83.328C86.144 250.936 88.704 251.618 91.008 252.984C93.3973 254.349 95.2747 256.226 96.64 258.616C98.0053 260.92 98.688 263.48 98.688 266.296V269.88H88.32V266.296C88.32 264.93 87.808 263.778 86.784 262.84C85.8453 261.816 84.6933 261.304 83.328 261.304H21.888C20.5227 261.304 19.328 261.816 18.304 262.84C17.3653 263.778 16.896 264.93 16.896 266.296V286.904C16.896 288.269 17.3653 289.421 18.304 290.36C19.328 291.298 20.5227 291.768 21.888 291.768H83.328C86.144 291.768 88.704 292.493 91.008 293.944C93.3973 295.309 95.2747 297.144 96.64 299.448C98.0053 301.752 98.688 304.312 98.688 307.128V327.736C98.688 330.552 98.0053 333.154 96.64 335.544C95.2747 337.848 93.3973 339.682 91.008 341.048C88.704 342.413 86.144 343.096 83.328 343.096H21.888ZM127.266 343.096C124.45 343.096 121.847 342.413 119.458 341.048C117.154 339.597 115.277 337.72 113.826 335.416C112.461 333.026 111.778 330.424 111.778 327.608V284.344C111.778 281.528 112.461 278.968 113.826 276.664C115.277 274.274 117.154 272.397 119.458 271.032C121.847 269.581 124.45 268.856 127.266 268.856H187.17V279.352H127.266C125.901 279.352 124.706 279.864 123.682 280.888C122.743 281.826 122.274 282.978 122.274 284.344V327.608C122.274 328.973 122.743 330.168 123.682 331.192C124.706 332.13 125.901 332.6 127.266 332.6H187.426V343.096H127.266ZM216.394 343.096C213.578 343.096 210.975 342.413 208.586 341.048C206.282 339.597 204.405 337.72 202.954 335.416C201.589 333.026 200.906 330.424 200.906 327.608V300.728H265.93V284.344C265.93 282.978 265.418 281.826 264.394 280.888C263.455 279.864 262.303 279.352 260.938 279.352H200.906V268.856H260.938C263.839 268.856 266.442 269.581 268.746 271.032C271.135 272.397 273.013 274.274 274.378 276.664C275.829 278.968 276.554 281.528 276.554 284.344V343.096H216.394ZM216.394 332.6H265.93V311.224H211.402V327.608C211.402 328.973 211.871 330.168 212.81 331.192C213.834 332.13 215.029 332.6 216.394 332.6ZM298.402 343.096V268.856H358.562C361.378 268.856 363.938 269.581 366.242 271.032C368.631 272.397 370.509 274.274 371.874 276.664C373.325 278.968 374.05 281.528 374.05 284.344V343.096H363.554V284.344C363.554 282.978 363.042 281.826 362.018 280.888C361.079 279.864 359.927 279.352 358.562 279.352H314.018C312.653 279.352 311.458 279.864 310.434 280.888C309.41 281.826 308.898 282.978 308.898 284.344V343.096H298.402ZM465.607 343.096L435.527 307.256H449.095L479.303 342.968V343.096H465.607ZM387.783 343.096V251.064H464.583C467.399 251.064 469.959 251.789 472.263 253.24C474.652 254.605 476.53 256.44 477.895 258.744C479.26 261.048 479.943 263.608 479.943 266.424V293.432C479.943 296.248 479.26 298.808 477.895 301.112C476.53 303.416 474.652 305.293 472.263 306.744C469.959 308.109 467.399 308.792 464.583 308.792H398.151V343.096H387.783ZM403.143 298.296H464.583C465.948 298.296 467.1 297.826 468.039 296.888C469.063 295.949 469.575 294.797 469.575 293.432V266.424C469.575 265.058 469.063 263.906 468.039 262.968C467.1 261.944 465.948 261.432 464.583 261.432H403.143C401.778 261.432 400.583 261.944 399.559 262.968C398.62 263.906 398.151 265.058 398.151 266.424V293.432C398.151 294.797 398.62 295.949 399.559 296.888C400.583 297.826 401.778 298.296 403.143 298.296Z" fill="white"/>
<path d="M249.06 193.78H233.794V178.515H249.06V193.78ZM233.794 140.351H218.529V178.515H233.794V140.351ZM294.856 125.086H279.591V155.617H294.856V125.086ZM279.591 109.82H264.325V125.086H279.591V109.82ZM187.998 125.086H172.732V140.351H187.998V125.086ZM172.732 109.82H157.467V125.086H172.732V109.82ZM226.162 71.6566H241.427V56.3911H226.162V71.6566ZM168.916 67.8402V90.7384H191.814V67.8402H168.916ZM203.263 102.188H157.467V56.3911H203.263V102.188ZM168.916 159.433V182.331H191.814V159.433H168.916ZM203.263 193.78H157.467V147.984H203.263V193.78ZM260.509 67.8402V90.7384H283.407V67.8402H260.509ZM294.856 102.188H249.06V56.3911H294.856V102.188ZM279.591 178.515V155.617H249.06V170.882H264.325V193.78H294.856V178.515H279.591ZM264.325 125.086H233.794V140.351H264.325V125.086ZM233.794 109.82H187.998V125.086H203.263V140.351H218.529V125.086H233.794V109.82ZM241.427 102.188V86.9221H226.162V71.6566H210.896V102.188H241.427ZM186.09 73.5648H174.641V85.0139H186.09V73.5648ZM186.09 165.158H174.641V176.607H186.09V165.158ZM277.682 73.5648H266.233V85.0139H277.682V73.5648Z" fill="white"/>
<path d="M304.371 250.992V238.442L348.992 208.114V222.755H381.76V250.992H304.371ZM139.832 250.992C132.163 250.992 125.075 249.132 118.567 245.414C112.293 241.696 107.296 236.699 103.578 230.424C99.8592 223.917 98 216.829 98 209.16V41.8319C98 34.1628 99.8592 27.1908 103.578 20.916C107.296 14.4088 112.293 9.29598 118.567 5.57758C125.075 1.85919 132.163 0 139.832 0H307.16C314.829 0 321.801 1.85919 328.076 5.57758C334.583 9.29598 339.696 14.4088 343.414 20.916C347.132 27.1908 348.992 34.1628 348.992 41.8319V209.16C348.992 216.829 347.132 223.917 343.414 230.424C339.696 236.699 334.583 241.696 328.076 245.414C321.801 249.132 314.829 250.992 307.16 250.992H139.832ZM139.832 222.755H307.16C310.878 222.755 314.016 221.477 316.572 218.92C319.361 216.132 320.755 212.878 320.755 209.16V41.8319C320.755 38.1135 319.361 34.9761 316.572 32.4198C314.016 29.631 310.878 28.2365 307.16 28.2365H139.832C136.114 28.2365 132.86 29.631 130.071 32.4198C127.515 34.9761 126.237 38.1135 126.237 41.8319V209.16C126.237 212.878 127.515 216.132 130.071 218.92C132.86 221.477 136.114 222.755 139.832 222.755Z" fill="#EC9916"/>
</svg>
